# xmcd
# 
# Track frame offsets:
#     150
#     18158
#     89458
#     107467
#     178767
# 
# Disc length: 2520
# 
# Revision: 0
# Processed by: cddbd v1.5.2PL0 Copyright (c) Steve Scherf et al.
# Submitted via: fre:ac v1.0.17
# 
DISCID=3109d605
DTITLE=やくしまるえつこ - ヤミヤミ・ロンリープラネット
DYEAR=2012
DGENRE=JPop
TTITLE0=ヤミヤミ
TTITLE1=ロンリープラネット
TTITLE2=ヤミヤミ(Off Vocal)
TTITLE3=ロンリープラネット(Off Vocal)
TTITLE4=ヤミヤミ(TV Size)
EXTD=
EXTT0=
EXTT1=
EXTT2=
EXTT3=
EXTT4=
PLAYORDER=
